<?xml version="1.0" standalone="no"?>
<!DOCTYPE svg PUBLIC "-//W3C//DTD SVG 20010904//EN"
 "http://www.w3.org/TR/2001/REC-SVG-20010904/DTD/svg10.dtd">
<svg version="1.0" xmlns="http://www.w3.org/2000/svg"
 width="45.000000pt" height="90.000000pt" viewBox="0 0 320.000000 400.000000"
 preserveAspectRatio="xMidYMid meet">

<g transform="translate(0.000000,400.000000) scale(0.100000,-0.100000)"
fill="#000000" stroke="none">
<path d="M1415 3970 c-339 -47 -661 -206 -887 -437 -215 -220 -378 -546 -422
-844 -20 -132 -20 -361 -1 -495 53 -376 273 -730 608 -981 279 -208 684 -320
1034 -285 434 44 733 193 1028 513 129 140 267 387 315 561 70 258 77 561 20
818 -59 262 -191 500 -389 699 -237 240 -469 364 -808 432 -119 24 -391 34
-498 19z m245 -268 c0 -5 -19 -19 -42 -32 -24 -13 -45 -25 -47 -26 -2 -2 10
-25 26 -51 34 -54 190 -305 403 -648 78 -126 164 -264 190 -305 91 -143 231
-371 237 -387 5 -12 2 -15 -10 -10 -10 4 -77 25 -150 47 -72 23 -196 62 -274
86 l-143 45 0 280 0 279 -120 0 -120 0 0 -241 0 -241 -22 5 c-43 10 -366 107
-395 118 -31 12 -325 103 -588 181 -93 28 -172 52 -174 54 -7 6 50 144 86 208
123 217 321 406 539 515 111 55 265 103 389 121 70 10 215 12 215 2z m345 -53
c240 -72 467 -235 630 -454 40 -53 42 -57 101 -171 98 -188 136 -352 135 -579
0 -152 -35 -375 -59 -375 -4 0 -23 26 -41 58 -19 31 -60 98 -91 147 -68 107
-207 330 -307 493 -99 159 -173 279 -244 392 -33 52 -81 131 -108 175 -26 44
-87 141 -134 215 -47 74 -83 138 -81 141 5 8 95 -11 199 -42z m-1496 -1125
c46 -77 99 -161 117 -189 18 -27 74 -117 124 -200 51 -82 127 -204 168 -270
42 -66 104 -165 137 -220 34 -55 103 -167 154 -248 51 -82 90 -151 87 -155
-11 -10 -145 37 -241 85 -250 125 -473 355 -581 599 -99 224 -136 483 -103
710 l12 78 21 -26 c12 -14 59 -88 105 -164z m716 -144 c50 -16 155 -48 235
-72 l145 -44 0 -75 c-1 -85 -30 -158 -77 -193 -49 -35 -156 -31 -255 10 -10 4
-13 -19 -13 -99 l0 -104 68 -23 c82 -28 240 -39 298 -20 127 42 207 169 221
353 3 42 7 77 8 77 1 0 28 -9 61 -21 32 -11 147 -47 254 -79 107 -32 282 -85
388 -117 105 -31 192 -62 192 -68 0 -13 -78 -142 -129 -215 -36 -50 -154 -170
-225 -229 -112 -92 -296 -182 -451 -221 -123 -31 -144 -35 -261 -46 l-71 -6
-36 58 c-57 94 -169 274 -291 469 -61 99 -168 270 -236 380 -68 110 -152 245
-187 299 -35 55 -63 103 -63 106 0 7 257 -65 425 -120z"/>
<path d="M1667 3172 c-9 -10 -20 -32 -23 -50 -5 -26 -1 -36 24 -62 36 -35 69
-38 106 -9 41 32 36 77 -13 112 -46 32 -71 34 -94 9z"/>
<path d="M131 591 c-18 -5 -45 -21 -60 -35 -25 -25 -26 -32 -29 -154 -7 -225
10 -247 178 -247 84 0 111 4 133 17 47 31 52 52 52 203 0 149 -6 172 -50 201
-29 19 -171 28 -224 15z m209 -61 c18 -18 20 -33 20 -155 0 -131 -1 -137 -25
-160 -22 -22 -32 -25 -105 -25 -84 0 -132 15 -144 45 -3 9 -6 74 -6 145 0 127
0 129 26 149 23 18 41 21 120 21 81 0 97 -3 114 -20z"/>
<path d="M497 584 c-4 -4 -7 -103 -7 -221 l0 -213 25 0 25 0 -2 217 c-3 187
-5 218 -18 221 -9 1 -19 0 -23 -4z"/>
<path d="M1010 560 c0 -23 4 -30 20 -30 16 0 20 7 20 30 0 23 -4 30 -20 30
-16 0 -20 -7 -20 -30z"/>
<path d="M2157 584 c-4 -4 -7 -103 -7 -221 0 -206 1 -213 20 -213 19 0 20 7
20 184 0 102 4 187 8 190 4 2 33 -37 63 -87 186 -308 170 -287 212 -287 l37 0
0 220 c0 213 -1 220 -20 220 -19 0 -20 -7 -20 -190 0 -104 -4 -190 -8 -190 -5
0 -36 46 -70 103 -154 256 -165 272 -198 275 -16 2 -33 0 -37 -4z"/>
<path d="M2637 583 c-4 -3 -7 -102 -7 -220 0 -205 1 -213 20 -213 18 0 20 8
22 103 l3 102 108 3 c99 2 107 4 107 22 0 19 -7 20 -110 20 l-110 0 0 70 0 70
165 0 165 0 0 -195 c0 -188 1 -195 20 -195 19 0 20 7 20 195 l0 195 76 0 c72
0 75 1 72 23 l-3 22 -271 3 c-149 1 -273 -1 -277 -5z"/>
<path d="M707 458 c-35 -9 -57 -36 -57 -69 0 -18 38 -9 43 11 5 19 12 21 79
18 l73 -3 3 -47 3 -47 -38 15 c-51 22 -131 13 -155 -17 -25 -29 -24 -109 1
-140 16 -20 28 -23 89 -23 44 -1 76 4 83 11 17 17 29 16 29 -2 0 -9 9 -15 21
-15 20 0 20 4 17 135 -3 119 -5 137 -23 154 -25 25 -113 35 -168 19z m131
-170 c20 -20 15 -76 -7 -88 -31 -16 -117 -12 -135 6 -19 18 -21 80 -3 87 25
11 133 7 145 -5z"/>
<path d="M1218 463 c-28 -4 -68 -45 -68 -69 0 -8 9 -14 20 -14 11 0 20 6 20
14 0 19 23 26 89 26 65 0 81 -11 81 -56 0 -33 -14 -52 -25 -35 -10 17 -89 23
-134 11 -31 -8 -45 -18 -52 -38 -13 -32 -6 -106 10 -126 20 -24 116 -31 162
-13 33 13 39 13 39 1 0 -8 9 -14 21 -14 20 0 20 4 17 135 -3 119 -5 137 -23
154 -21 21 -103 34 -157 24z m126 -179 c22 -21 20 -50 -4 -74 -26 -26 -114
-28 -142 -3 -20 18 -24 63 -6 81 18 18 133 15 152 -4z"/>
<path d="M1010 264 c0 -179 -1 -186 -20 -191 -24 -6 -23 -36 0 -41 9 -1 24 4
35 12 19 13 20 28 23 210 3 192 3 196 -17 196 -20 0 -21 -5 -21 -186z"/>
<path d="M1500 430 c0 -17 8 -20 89 -22 l90 -3 -94 -100 c-71 -75 -94 -107
-95 -127 l0 -28 125 0 c118 0 125 1 125 20 0 19 -7 20 -100 20 -55 0 -100 3
-100 8 1 4 46 54 100 112 55 58 100 113 100 123 0 15 -12 17 -120 17 -113 0
-120 -1 -120 -20z"/>
<path d="M1822 433 c3 -15 17 -18 96 -21 l93 -3 -100 -108 c-63 -67 -101 -116
-101 -130 0 -20 4 -21 125 -21 118 0 125 1 125 20 0 19 -7 20 -95 20 -52 0
-95 3 -95 8 0 4 43 54 95 112 52 58 95 113 95 122 0 16 -12 18 -121 18 -109 0
-120 -2 -117 -17z"/>
</g>
</svg>
