<?xml version="1.0" standalone="no"?>
<!DOCTYPE svg PUBLIC "-//W3C//DTD SVG 20010904//EN"
 "http://www.w3.org/TR/2001/REC-SVG-20010904/DTD/svg10.dtd">
<svg version="1.0" xmlns="http://www.w3.org/2000/svg"
 width="1000.000000pt" height="1000.000000pt" viewBox="0 0 1000.000000 1000.000000"
 preserveAspectRatio="xMidYMid meet">

<g transform="translate(0.000000,1000.000000) scale(0.100000,-0.100000)"
fill="#000000" stroke="none">
<path d="M4755 8038 c-175 -27 -360 -64 -390 -77 -11 -4 -45 -16 -75 -25 -30
-10 -65 -22 -77 -27 -13 -5 -33 -13 -45 -18 -457 -186 -836 -507 -1086 -918
-56 -92 -175 -330 -186 -373 -4 -14 -11 -34 -16 -45 -17 -41 -58 -172 -74
-240 -32 -131 -35 -150 -51 -265 -19 -135 -16 -531 4 -670 22 -156 84 -388
122 -462 5 -10 9 -23 9 -29 0 -11 130 -278 153 -313 6 -11 23 -38 37 -60 154
-251 490 -579 760 -742 90 -54 298 -158 340 -169 14 -3 34 -10 45 -15 45 -20
175 -58 250 -75 44 -9 87 -19 95 -22 102 -34 578 -49 790 -25 138 16 380 70
455 102 11 5 43 16 70 26 79 27 339 155 355 175 3 4 21 15 40 25 35 19 100 63
110 74 3 3 41 32 85 65 114 85 335 311 430 440 68 93 205 306 205 320 0 2 18
42 40 89 22 47 51 121 65 163 15 43 30 87 35 98 4 11 15 52 25 90 9 39 20 86
26 105 23 85 52 374 51 510 0 148 -26 411 -51 515 -6 22 -17 72 -26 110 -10
39 -21 79 -26 90 -4 11 -20 56 -35 100 -144 428 -524 889 -950 1152 -170 105
-458 226 -614 259 -36 7 -85 18 -110 24 -172 40 -629 62 -785 38z m342 -403
c1 -6 -26 -28 -62 -50 -36 -22 -65 -42 -65 -45 0 -6 14 -30 303 -495 117 -187
215 -341 219 -343 5 -2 8 -8 8 -13 0 -6 17 -36 37 -67 21 -31 42 -66 48 -77 6
-11 90 -145 186 -298 96 -153 185 -297 198 -320 13 -23 34 -56 47 -74 13 -17
24 -34 24 -37 0 -2 43 -74 96 -158 145 -230 139 -218 120 -218 -8 0 -35 6 -58
14 -24 7 -70 21 -103 30 -33 10 -69 21 -80 25 -11 5 -47 16 -80 26 -33 9 -68
21 -77 26 -10 5 -24 9 -31 9 -7 0 -46 11 -87 24 -41 13 -122 38 -180 56 -58
17 -120 38 -137 45 l-33 15 -2 417 -3 418 -175 0 -175 0 -3 -355 c-1 -195 -4
-361 -7 -369 -4 -11 -8 -12 -17 -3 -7 7 -22 12 -34 12 -13 0 -25 4 -28 9 -3 4
-24 11 -46 15 -23 3 -49 10 -58 15 -9 5 -44 17 -77 26 -33 9 -71 20 -85 25
-24 8 -235 74 -345 107 -27 8 -75 23 -105 33 -30 10 -102 32 -160 50 -139 42
-152 46 -240 74 -41 13 -102 31 -135 41 -33 10 -68 21 -77 26 -10 5 -23 9 -29
9 -13 0 -199 56 -234 70 -11 4 -39 13 -62 20 -24 7 -43 17 -43 21 0 18 62 162
108 251 149 290 332 494 637 713 17 12 37 25 45 28 8 4 33 18 55 32 22 14 49
29 60 34 11 5 53 25 94 45 41 20 79 36 85 36 6 0 22 6 36 13 27 14 32 16 120
42 114 33 158 43 260 59 155 24 340 30 347 11z m426 -50 c104 -28 163 -48 173
-58 4 -4 13 -7 21 -7 24 0 171 -69 288 -135 255 -144 522 -411 673 -675 46
-79 122 -238 122 -253 0 -7 4 -17 8 -22 23 -26 80 -235 107 -390 19 -106 22
-466 5 -560 -29 -161 -47 -238 -65 -282 l-16 -38 -42 68 c-23 37 -163 262
-311 500 -147 238 -372 599 -498 802 -127 204 -329 528 -449 721 -121 194
-219 355 -219 359 0 12 104 -3 203 -30z m-2193 -1662 c321 -519 589 -949 599
-960 6 -7 11 -15 11 -18 0 -3 17 -32 37 -63 21 -31 40 -62 43 -68 3 -6 56 -91
118 -190 62 -98 119 -188 125 -198 7 -11 28 -45 47 -75 19 -31 43 -72 53 -91
11 -19 30 -49 43 -67 13 -17 24 -35 24 -39 0 -4 11 -22 25 -40 14 -18 25 -35
25 -38 0 -3 20 -36 45 -73 25 -37 45 -70 45 -75 0 -11 -23 -10 -52 1 -13 5
-50 17 -83 26 -93 27 -363 154 -386 182 -6 7 -17 13 -23 13 -10 1 -52 30 -177
126 -61 47 -260 245 -287 285 -9 15 -35 51 -58 80 -22 30 -48 68 -58 84 -9 17
-28 48 -42 70 -23 38 -98 187 -114 230 -4 11 -12 31 -18 45 -19 42 -62 178
-73 228 -43 201 -50 277 -45 477 2 110 6 211 8 225 2 14 8 51 12 83 5 31 11
57 15 57 3 0 67 -98 141 -217z m542 -102 c13 -5 70 -24 128 -41 58 -17 116
-35 130 -40 14 -5 52 -16 85 -25 33 -9 69 -20 80 -25 11 -4 47 -15 80 -25 33
-9 71 -21 85 -25 14 -5 72 -23 130 -40 58 -18 139 -43 180 -56 41 -13 80 -24
87 -24 7 0 21 -4 31 -9 9 -5 43 -17 75 -27 32 -9 60 -21 63 -25 9 -15 -16
-247 -31 -282 -22 -54 -72 -105 -124 -129 -39 -18 -58 -20 -141 -15 -86 5
-118 13 -212 52 -17 7 -18 -4 -18 -148 0 -112 3 -157 13 -164 6 -5 39 -17 72
-27 33 -10 70 -22 82 -26 12 -5 67 -14 122 -21 219 -28 373 23 471 156 79 106
112 215 127 410 3 44 7 82 9 84 4 4 205 -54 234 -69 9 -4 35 -11 58 -15 23 -4
44 -11 48 -16 3 -5 16 -9 29 -9 13 0 27 -4 30 -10 3 -5 15 -10 25 -10 11 0 52
-11 92 -24 40 -13 100 -31 133 -41 33 -9 67 -20 75 -25 9 -4 31 -11 50 -14 19
-4 44 -11 55 -15 11 -5 47 -17 80 -26 33 -10 68 -21 77 -26 10 -5 24 -9 33 -9
8 0 47 -11 87 -24 40 -13 112 -36 161 -51 48 -15 87 -31 87 -35 0 -10 -46 -96
-83 -155 -128 -205 -297 -395 -467 -525 -18 -14 -44 -34 -59 -45 -79 -62 -301
-181 -421 -225 -36 -14 -67 -25 -70 -25 -3 -1 -23 -7 -45 -14 -163 -52 -363
-84 -495 -79 l-84 3 -107 170 c-59 94 -274 440 -479 770 -205 330 -428 689
-497 798 -68 109 -126 204 -130 212 -6 17 23 20 59 6z"/>
<path d="M5139 6855 c-60 -32 -76 -140 -28 -191 28 -30 81 -47 119 -39 44 10
90 67 90 113 -1 34 -7 41 -64 85 -68 51 -78 53 -117 32z"/>
<path d="M2797 2945 c-122 -35 -132 -59 -132 -325 0 -270 9 -291 139 -325 69
-18 179 -19 259 -3 125 26 156 91 156 328 0 222 -31 300 -130 322 -72 17 -238
18 -292 3z m318 -90 l35 -36 0 -199 0 -199 -34 -35 -33 -36 -139 0 c-153 0
-181 9 -210 65 -20 39 -20 371 0 410 28 54 58 63 208 64 l137 1 36 -35z"/>
<path d="M3350 2610 l0 -330 30 0 30 0 0 330 0 330 -30 0 -30 0 0 -330z"/>
<path d="M4120 2901 c0 -40 1 -41 36 -41 35 0 35 1 32 38 -3 34 -6 37 -35 40
-32 3 -33 2 -33 -37z"/>
<path d="M5850 2610 l0 -330 30 0 30 0 0 291 c0 258 2 290 15 279 8 -7 15 -18
15 -25 0 -8 4 -15 8 -17 5 -1 34 -46 65 -98 32 -52 62 -102 67 -110 5 -8 28
-44 50 -80 21 -36 63 -103 93 -150 l53 -85 54 0 55 0 3 328 2 327 -35 0 -35 0
-2 -291 -3 -291 -180 291 -180 291 -52 0 -53 0 0 -330z"/>
<path d="M6570 2610 l0 -330 30 0 29 0 3 158 3 157 163 3 162 2 0 30 0 30
-162 2 -163 3 -3 103 -3 102 251 0 250 0 0 -295 0 -295 30 0 30 0 0 295 0 295
105 0 105 0 0 35 0 35 -415 0 -415 0 0 -330z"/>
<path d="M3705 2755 c-5 -2 -29 -9 -51 -15 -33 -8 -45 -18 -58 -44 -24 -51
-21 -66 14 -66 18 0 30 5 30 13 0 34 35 47 127 47 113 0 123 -8 123 -100 0
-59 -1 -62 -17 -48 -24 19 -91 38 -138 38 -46 0 -114 -19 -136 -37 -9 -8 -22
-34 -29 -59 -16 -58 2 -147 34 -167 31 -20 130 -40 162 -34 70 14 90 21 106
35 16 13 18 12 28 -12 7 -20 16 -27 33 -24 22 3 22 5 25 178 4 237 -6 266
-100 289 -44 10 -131 14 -153 6z m163 -261 c17 -12 22 -25 22 -60 0 -68 -16
-78 -122 -83 -119 -4 -138 8 -138 84 0 41 4 56 18 64 29 17 194 14 220 -5z"/>
<path d="M4420 2747 c-59 -20 -62 -24 -84 -94 -7 -21 -4 -23 28 -23 28 0 36 4
36 18 0 35 21 42 120 42 117 0 130 -9 130 -88 0 -28 -4 -53 -9 -56 -5 -3 -24
2 -42 11 -81 40 -231 21 -260 -34 -9 -16 -14 -55 -13 -100 0 -62 4 -77 22 -95
22 -23 96 -47 146 -48 37 0 107 20 127 37 22 18 27 16 31 -9 2 -17 11 -24 31
-26 l27 -3 0 191 c0 217 -8 250 -63 270 -47 17 -186 21 -227 7z m204 -258 c20
-16 26 -29 26 -59 0 -62 -32 -80 -138 -80 -104 0 -132 17 -132 83 0 66 18 77
125 77 78 0 96 -3 119 -21z"/>
<path d="M4120 2460 l0 -280 -25 -10 c-17 -7 -25 -17 -25 -34 0 -33 31 -42 65
-20 50 33 55 63 55 355 l0 269 -35 0 -35 0 0 -280z"/>
<path d="M4860 2710 l0 -30 136 0 c75 0 134 -4 132 -8 -3 -10 -112 -131 -221
-249 -59 -63 -68 -78 -65 -106 l3 -32 188 -3 187 -2 0 35 0 35 -145 0 c-85 0
-145 4 -145 10 0 5 10 20 23 33 201 211 267 290 267 321 l0 26 -180 0 -180 0
0 -30z"/>
<path d="M5350 2710 l0 -30 135 0 c74 0 135 -4 135 -8 0 -9 -2 -12 -162 -184
-110 -119 -118 -130 -118 -168 l0 -40 185 0 185 0 0 35 0 35 -145 0 c-80 0
-145 4 -145 8 0 4 42 53 93 108 196 213 197 214 197 245 l0 29 -180 0 -180 0
0 -30z"/>
</g>
</svg>
